<svg width="120" height="40" viewBox="0 0 120 40" fill="none" xmlns="http://www.w3.org/2000/svg">
<path fill-rule="evenodd" clip-rule="evenodd" d="M24.2 14C24.6 6.53333 25.6667 1.13333 27 1.13333C28.6 1.13333 30 9.53333 30 19.9333C30 30.3333 28.6667 38.7333 27 38.7333C25.6667 38.7333 24.6 33.3333 24.2 25.8667C23.6667 34 22 39.9333 20 39.9333C18 39.9333 16.3333 34.1333 15.8 26.0667C15.4 33.4667 14.2667 38.7333 13 38.7333C11.3333 38.7333 10 30.2667 10 19.9333C10 9.6 11.3333 1.13333 13 1.2C14.3333 1.2 15.4 6.53333 15.8 13.8667C16.4 5.8 18.0667 0 20 0C21.9333 0 23.6 5.93333 24.2 14ZM120 25.8668H117.533V8.80013H120V25.8668ZM115.667 20.6V19.7333C115.667 18.1333 115.067 16.6 113.867 15.3333C112.8 14.2667 111.333 13.6667 109.8 13.6667C108.2 13.6 106.6 14.2667 105.467 15.4C104.333 16.6 103.667 18.2667 103.733 19.9333C103.667 21.6 104.267 23.2 105.467 24.4C106.6 25.5333 108.133 26.1333 109.733 26.1333C110.933 26.1333 112.133 25.8667 113.2 25.2C114.2 24.5333 115 23.6 115.4 22.4667L113.2 22C112.6 23.3333 111.2 24.1333 109.733 24.0667C108.8 24.0667 108 23.7333 107.333 23.1333C106.6 22.4667 106.2 21.5333 106.133 20.6H115.667ZM107.533 16.7333C108.2 16.2667 109 16 109.8 16C110.6 15.9333 111.333 16.2 111.933 16.7333C112.6 17.2667 113 18.0667 113.133 18.8667H106.2C106.333 18 106.8 17.2667 107.533 16.7333ZM59.4666 13.7999C61 13.7999 62.5333 14.3999 63.6 15.5333C64.7333 16.7333 65.4 18.3333 65.3333 19.9999C65.4 21.6666 64.8 23.2666 63.6 24.4666C61.2666 26.7999 57.5333 26.7999 55.2 24.5333V29.9333H52.7333V14.1333H55.2V15.4666C56.2666 14.3333 57.8666 13.7333 59.4666 13.7999ZM59.0666 24.0666C60.0666 24.0666 61.0666 23.6666 61.8 22.9333C62.5333 22.1333 62.9333 21.0666 62.8666 19.9999C62.9333 18.9333 62.5333 17.8666 61.8 17.0666C61.0666 16.3333 60.0666 15.9333 59.0666 15.9333C58.0666 15.9333 57.0666 16.3333 56.3333 17.0666C54.8 18.6666 54.8 21.2666 56.3333 22.8666C57.0666 23.6666 58 24.0666 59.0666 24.0666ZM74.0666 13.9997C74.3333 13.9997 74.6 13.9997 74.8666 14.133L74.6666 16.533H74C72.7333 16.4664 71.4666 16.9997 70.6666 17.933C69.8666 19.0664 69.4666 20.4664 69.5333 21.8664V25.933H67.0666V14.133H69.5333V16.5997C70.4 14.9997 72.1333 13.933 74.0666 13.9997ZM81.8 13.8665C80.0666 13.8665 78.4666 14.4665 77.2666 15.5999C76 16.7332 75.3333 18.3332 75.4 19.9999C75.4 21.7332 76.0666 23.3332 77.2666 24.4665C78.5333 25.5999 80.1333 26.2665 81.8 26.1999C83.4666 26.2665 85.0666 25.5999 86.2666 24.4665C87.4666 23.2665 88.1333 21.6665 88.0666 19.9999C88.1333 18.3332 87.4666 16.7332 86.2666 15.5999C85.0666 14.4665 83.4666 13.7999 81.8 13.8665ZM84.4666 22.9332C83.7333 23.6665 82.7333 24.0665 81.7333 24.0665C80.7333 24.0665 79.7333 23.6665 79 22.9332C77.4666 21.3332 77.4666 18.7332 79 17.1332C80.4666 15.5999 82.9333 15.5999 84.4666 17.1332C86 18.7332 86 21.3332 84.4666 22.9332ZM96.6 13.7999C98.1333 13.7999 99.6667 14.3999 100.733 15.5333C101.867 16.7333 102.533 18.3333 102.467 19.9999C102.533 21.6666 101.933 23.2666 100.733 24.4666C98.4 26.7999 94.6667 26.7999 92.3333 24.5333V29.9333H89.8667V14.1333H92.3333V15.4666C93.4667 14.3333 95 13.7333 96.6 13.7999ZM96.2 24.0666C97.2 24.0666 98.2 23.6666 98.9333 22.9333C99.6667 22.1333 100.067 21.0666 100 19.9999C100.067 18.9333 99.6667 17.8666 98.9333 17.0666C98.2 16.3333 97.2 15.9333 96.2 15.9333C95.2 15.9333 94.2 16.3333 93.4667 17.0666C91.9333 18.6666 91.9333 21.2666 93.4667 22.8666C94.2 23.6666 95.2 24.0666 96.2 24.0666ZM33.4 5.33333C32.2667 5.33333 31.3333 11.8667 31.3333 19.9333C31.3333 28 32.2667 34.5333 33.4 34.5333C34.5333 34.5333 35.4667 28 35.4667 19.9333C35.4667 11.8667 34.5333 5.33333 33.4 5.33333ZM40 19.9335C40 23.689 39.4329 26.7335 38.7333 26.7335C38.0337 26.7335 37.4666 23.689 37.4666 19.9335C37.4666 16.1779 38.0337 13.1335 38.7333 13.1335C39.4329 13.1335 40 16.1779 40 19.9335ZM1.26667 13.1335C0.6 13.1335 0 16.2001 0 19.9335C0 23.6668 0.533333 26.7335 1.26667 26.7335C2 26.7335 2.53333 23.7335 2.53333 19.9335C2.53333 16.1335 1.93333 13.1335 1.26667 13.1335ZM4.53336 19.9333C4.53336 11.8667 5.4667 5.33333 6.60003 5.33333C7.73336 5.33333 8.6667 11.8667 8.6667 19.9333C8.6667 28 7.73336 34.5333 6.60003 34.5333C5.4667 34.5333 4.53336 28 4.53336 19.9333Z" fill="#242424"/>
</svg>
