<svg width="44" height="44" viewBox="0 0 44 44" fill="none" xmlns="http://www.w3.org/2000/svg">
<rect width="44" height="44" fill="#525252"/>
<rect width="768" height="1140" transform="translate(-40 -14)" fill="white"/>
<rect width="768" height="72" transform="translate(-40 -14)" fill="white"/>
<g clip-path="url(#clip0_3101_13996)">
<path d="M21.9846 44C24.6625 44 26.8334 34.1503 26.8334 22C26.8334 9.84974 24.6625 0 21.9846 0C19.3067 0 17.1358 9.84974 17.1358 22C17.1358 34.1503 19.3067 44 21.9846 44Z" fill="#242424"/>
<path d="M29.7088 42.6798C31.5071 42.6798 32.9648 33.4211 32.9648 21.9998C32.9648 10.5786 31.5071 1.31982 29.7088 1.31982C27.9106 1.31982 26.4528 10.5786 26.4528 21.9998C26.4528 33.4211 27.9106 42.6798 29.7088 42.6798Z" fill="#242424"/>
<path d="M36.7555 38.0599C38.0142 38.0599 39.0347 30.8696 39.0347 21.9999C39.0347 13.1302 38.0142 5.93994 36.7555 5.93994C35.4967 5.93994 34.4763 13.1302 34.4763 21.9999C34.4763 30.8696 35.4967 38.0599 36.7555 38.0599Z" fill="#242424"/>
<path d="M42.6338 29.48C43.3884 29.48 44 26.1311 44 22C44 17.8689 43.3884 14.52 42.6338 14.52C41.8793 14.52 41.2676 17.8689 41.2676 22C41.2676 26.1311 41.8793 29.48 42.6338 29.48Z" fill="#242424"/>
<path d="M1.3662 29.48C2.12073 29.48 2.7324 26.1311 2.7324 22C2.7324 17.8689 2.12073 14.52 1.3662 14.52C0.611669 14.52 0 17.8689 0 22C0 26.1311 0.611669 29.48 1.3662 29.48Z" fill="#242424"/>
<path d="M14.2912 42.6798C16.0894 42.6798 17.5472 33.4211 17.5472 21.9998C17.5472 10.5786 16.0894 1.31982 14.2912 1.31982C12.4929 1.31982 11.0352 10.5786 11.0352 21.9998C11.0352 33.4211 12.4929 42.6798 14.2912 42.6798Z" fill="#242424"/>
<path d="M7.24465 38.0599C8.50342 38.0599 9.52385 30.8696 9.52385 21.9999C9.52385 13.1302 8.50342 5.93994 7.24465 5.93994C5.98589 5.93994 4.96545 13.1302 4.96545 21.9999C4.96545 30.8696 5.98589 38.0599 7.24465 38.0599Z" fill="#242424"/>
</g>
<defs>
<clipPath id="clip0_3101_13996">
<rect width="44" height="44" fill="white"/>
</clipPath>
</defs>
</svg>
